<?xml version="1.0" encoding="utf-8"?>
<!-- Generator: Adobe Illustrator 22.1.0, SVG Export Plug-In . SVG Version: 6.00 Build 0)  -->
<svg version="1.1" id="Layer_1" xmlns="http://www.w3.org/2000/svg" xmlns:xlink="http://www.w3.org/1999/xlink" x="0px" y="0px"
	 width="335px" height="150px" viewBox="0 0 335 150" enable-background="new 0 0 335 150" xml:space="preserve">
<rect fill="#F9F8F5" width="335" height="150"/>
<path fill="#EBE7DD" d="M334.875,25.038c-38.58-5.942-91.61-9.611-150.138-9.611c-78.772,0-147.584,6.645-184.613,16.535V150h334.75
	L334.875,25.038z"/>
<polygon fill="#FCFBFA" points="152.025,146.906 256.112,42.741 18.752,42.741 -0.125,61.631 -0.125,146.906 "/>
<polygon fill="#C3D9E7" points="0.125,127.606 70.237,127.606 88.46,109.369 161.01,109.369 217.133,53.203 33.622,53.203 
	5.025,81.823 6.478,81.821 34.047,54.23 214.654,54.23 160.584,108.342 88.035,108.342 69.812,126.578 0.125,126.578 "/>
<polygon fill="#C3D9E7" points="93.637,108.743 93.284,108.39 102.397,99.27 153.681,99.27 153.681,99.77 102.604,99.77 "/>
<polygon fill="#C3D9E7" points="144.291,109.271 143.937,108.917 191.37,61.449 26.165,61.449 26.165,60.949 192.576,60.949 "/>
<polygon fill="#C3D9E7" points="20.621,127.227 20.268,126.873 38.022,109.105 0.125,109.105 0.125,108.605 39.228,108.605 "/>
<rect x="77.427" y="94.89" transform="matrix(0.2716 -0.9624 0.9624 0.2716 -45.3114 151.8808)" fill="#C3D9E7" width="0.499" height="21.966"/>
<rect x="38.212" y="105.623" transform="matrix(0.9624 -0.2717 0.2717 0.9624 -26.9142 17.3481)" fill="#C3D9E7" width="21.965" height="0.499"/>
<path fill="#C3D9E7" d="M25.559,81.859H10.372l0.213-0.214l16.312-16.324h14.951L25.559,81.859z M10.975,81.609h14.479
	l15.797-16.038H27.002L10.975,81.609z"/>
<path fill="#C3D9E7" d="M151.882,81.859H86.78l7.189-7.195h65.036L151.882,81.859z M87.383,81.609h64.395l6.628-6.695H94.073
	L87.383,81.609z"/>
<rect x="164.472" y="88.471" fill="#C3D9E7" width="16.33" height="0.5"/>
<rect x="191.45" y="57.465" transform="matrix(0.9561 -0.2931 0.2931 0.9561 -7.9872 62.1172)" fill="#C3D9E7" width="23.728" height="0.499"/>
<rect x="180.347" y="72.584" fill="#C3D9E7" width="16.083" height="0.5"/>
<rect x="154.115" y="81.036" transform="matrix(0.7074 -0.7068 0.7068 0.7074 -0.7988 160.6422)" fill="#86B3CF" width="79" height="0.5"/>
<rect x="164.396" y="109.028" fill="#86B3CF" width="2.598" height="0.4"/>
<rect x="220.237" y="53.144" fill="#86B3CF" width="2.598" height="0.4"/>
<polygon fill="#86B3CF" points="197.782,79.58 194.359,83.006 195.063,83.006 198.5,79.566 "/>
<rect x="35.764" y="50.191" fill="#86B3CF" width="184.33" height="0.5"/>
<rect x="34.464" y="50.24" transform="matrix(0.7074 -0.7069 0.7069 0.7074 -25.1881 40.0402)" fill="#86B3CF" width="2.599" height="0.4"/>
<rect x="218.795" y="50.241" transform="matrix(0.7074 -0.7068 0.7068 0.7074 28.7496 170.3286)" fill="#86B3CF" width="2.599" height="0.4"/>
<polygon fill="#86B3CF" points="130.091,48.698 125.25,48.698 125.747,48.2 130.608,48.2 "/>
<path fill="#C95E69" d="M146.78,98.378c-0.42,0.625-0.746,1.274-0.746,1.964c0,2.398,2.82,4.595,6.175,4.595
	c3.356,0,6.254-2.196,6.254-4.595c0-0.972-0.519-1.995-1.346-2.779c-1.177-1.117-3.066-1.796-4.895-1.701
	c-2.659,0.142-3.818,1.761-4.023,2.99c-0.021,0.128-0.055,0.143-0.055,0.143l-0.041,0.018l-0.029,0.006l-0.018,0.024l-0.071,0.006
	c0,0-0.035-0.018-0.082-0.035s-0.065-0.006-0.088-0.041c-0.024-0.035-0.024-0.106-0.024-0.106c-0.018,0.053-0.123,0.106-0.086-0.091
	c0.267-1.407,1.533-3.123,4.49-3.281c1.985-0.094,3.868,0.537,5.162,1.765c0.927,0.879,1.438,1.975,1.438,3.085
	c0,2.674-2.955,4.85-6.586,4.85s-6.586-2.176-6.586-4.85c0-0.784,0.259-1.563,0.75-2.253l0.031-0.024h0.071l0.035,0.018l0.012,0.024
	l0.041,0.024l0.035,0.006c0,0,0.047-0.012,0.094,0.006s0.071,0.047,0.071,0.047l0.006,0.024v0.035l0.029,0.035
	C146.798,98.282,146.826,98.309,146.78,98.378z"/>
<path fill="#C95E69" d="M46.8,65.503c0.341-0.585,0.586-1.178,0.504-1.759c-0.288-2.02-3.342-3.471-6.665-2.998
	c-3.323,0.474-5.929,2.732-5.641,4.752c0.116,0.818,0.753,1.607,1.666,2.15c1.299,0.775,3.25,1.08,5.05,0.741
	c2.615-0.495,3.569-2.022,3.624-3.085c0.006-0.111,0.037-0.128,0.037-0.128l0.039-0.021l0.028-0.009l0.015-0.022l0.069-0.015
	c0,0,0.037,0.01,0.086,0.018c0.049,0.008,0.065-0.004,0.092,0.022c0.028,0.026,0.036,0.086,0.036,0.086
	c0.011-0.047,0.11-0.107,0.096,0.065c-0.096,1.223-1.143,2.846-4.052,3.397c-1.954,0.359-3.894,0.094-5.322-0.757
	c-1.023-0.609-1.66-1.46-1.793-2.395c-0.321-2.252,2.344-4.501,5.939-5.013c3.595-0.513,6.781,0.903,7.101,3.154
	c0.094,0.66-0.069,1.353-0.472,2.003l-0.028,0.025l-0.07,0.01l-0.037-0.01l-0.014-0.018l-0.044-0.014l-0.036,0
	c0,0-0.045,0.017-0.094,0.008c-0.049-0.008-0.075-0.03-0.075-0.03l-0.009-0.019l-0.004-0.03l-0.033-0.026
	C46.793,65.586,46.762,65.567,46.8,65.503z"/>
<path fill="#4A7B96" d="M334.875,91.134c-4.179,0.647-10.243,1.166-18.945,1.166c-22.238,0-27.608-3.656-27.608-3.656V52.13h46.554
	L334.875,91.134z"/>
<path fill="#457489" d="M334.875,54.984c-1.029,0.095-2.14,0.194-3.33,0.296c-20.533,1.765-43.224,10.284-43.224,10.284V52.13
	h46.554V54.984z"/>
<path fill="#4A7B96" d="M334.875,46.532h-50.297c0,0,0,4.214,0,5.222c0,1.008,14.534,2.67,32.462,2.67
	c6.588,0,12.718-0.224,17.836-0.558L334.875,46.532z"/>
<path fill="#457489" d="M334.875,45.007c-5.118-0.19-11.248-0.3-17.835-0.3c-17.928,0-32.462,0.817-32.462,1.825
	c0,1.008,14.534,2.67,32.462,2.67c6.588,0,12.718-0.224,17.836-0.558L334.875,45.007z"/>
<path fill="#888E40" d="M282.779,0c0.066,0.124,0.16,0.259,0.284,0.4c0.964,1.103,2.754,2.756,5.922,9.51s5.784,16.676,5.784,16.676
	l5.784,9.372l0.413-7.994c0,0-2.754-6.064-6.335-13.093c-3.569-7.007-7.823-13.466-9.76-14.871L282.779,0z"/>
<path fill="#8D9B43" d="M295.281,0c1.691,2.733,3.15,5.108,3.756,5.775c1.377,1.516,2.066,2.481,2.066,2.481S300.713,4.65,301.028,0
	l2.844,0c0.133,4.144,0.312,8.506,0.536,11.426c0,0,3.839-5.593,8.444-11.426l5.512,0c-1.401,1.858-2.772,3.759-4.04,5.637
	c-6.886,10.199-9.227,14.196-9.64,15.987c-0.413,1.792-0.138,3.308-0.138,3.308s2.203-2.205,7.574-5.651
	c5.371-3.446,9.64-7.856,14.46-8.269c4.82-0.413,7.161-0.138,7.161-0.138s-7.161-0.138-12.808,5.375s-13.496,10.612-14.46,12.128
	c-0.964,1.516-1.102,4.41-0.826,7.442c0,0,7.024-6.891,17.628-10.061c0,0-6.61,2.894-11.706,7.304s-5.233,6.615-5.371,8.269
	c-0.138,1.654,0,2.205,0,2.205s5.922-10.337,13.772-14.885c0,0-8.125,11.439-9.916,18.744h-10.467l-0.275-3.997
	c0,0-7.437-5.099-13.083-14.333c0,0,7.024,7.304,13.359,12.128V37.75c0,0-18.454-17.917-19.694-32.801c0,0,2.479,4.824,7.988,11.163
	s11.293,15.987,11.293,15.987V22.038c0,0-11.431-5.375-20.52-9.647s-17.766-7.029-21.622-7.167c-3.856-0.138-2.066-1.516,3.03-1.24
	c5.096,0.276,20.658,5.513,29.196,9.096c8.539,3.583,11.293,5.651,11.293,5.651s-3.168-7.304-6.473-12.817
	c-1.272-2.121-2.095-4.079-2.964-5.913L295.281,0z"/>
<path fill="#8D9B43" d="M300.194,0c2.49,3.018,13.914,16.874,18.317,22.297c4.954,6.102,7.495,11.06,7.495,11.06
	s2.414-5.466,5.462-13.984c1.049-2.93,2.248-5.394,3.406-7.402l0,5.644c-2.065,5.057-4.223,10.691-5.185,13.962
	c-1.905,6.483-1.905,7.755-1.905,7.755s3.511-2.928,7.09-6.596l0,3.167c-3.015,3.723-5.508,6.822-6.074,7.624
	c-1.524,2.161-1.778,5.975-1.778,5.975h-3.811c0,0-10.036-22.883-9.654-37.375c0,0,6.606,19.832,10.671,28.985
	c0,0,0.508-2.67-0.635-6.483s-12.322-16.781-16.26-23.518c-3.139-5.37-6.116-9.61-7.195-11.109L300.194,0z"/>
<path fill="#899341" d="M299.176,30.096v2.003c0,0-1.058-1.765-2.701-4.281c0,0,0.726,1.717,1.587,3.345
	c0.692,1.308,0.956,2.01,1.148,3.47c0.148,1.127,0.558,0.911,0.406-1.34C299.473,31.162,299.176,30.096,299.176,30.096z"/>
<path fill="#899341" d="M299.589,40.317v0.878c-1.243-0.947-2.514-1.989-3.752-3.053c0,0,2.121,2.12,2.759,2.688
	c0.638,0.568,0.765,0.718,0.853,1.149c0.067,0.33,0.269,0.037,0.263-0.638C299.706,40.721,299.589,40.317,299.589,40.317z"/>
<path fill="#899341" d="M301.203,45.715c-0.112-1.383-0.254-1.939-1.175-2.543c-0.921-0.604-1.366-0.826-3.874-2.638
	c-2.509-1.812-6.382-6.416-6.382-6.416c4.791,6.023,9.542,9.281,9.542,9.281l0.275,3.997h1.678
	C301.267,47.397,301.298,46.883,301.203,45.715z"/>
<path fill="#899341" d="M307.883,47.397h2.173c1.113-4.542,4.675-10.682,7.211-14.677c0,0-3.201,3.81-5.403,7.496
	S308.433,45.509,307.883,47.397z"/>
<path fill="#899341" d="M310.141,37.801c-2.462,3.153-3.942,5.737-3.942,5.737s-0.138-0.551,0-2.205
	c0.138-1.654,0.275-3.859,5.371-8.269c1.569-1.358,3.282-2.573,4.902-3.603c0,0-3.889,1.815-7.446,5.459s-3.546,4.105-3.854,5.631
	c-0.28,1.386-0.335,3.813-0.295,4.793c0.038,0.935,0.281,1.249,1.016-0.212c0.411-0.817,1.182-2.315,2.085-3.88
	C309.008,39.466,310.141,37.801,310.141,37.801z"/>
<path fill="#899341" d="M306.634,34.931c-0.645,0.555-0.985,0.889-0.985,0.889c-0.275-3.032-0.138-5.926,0.826-7.442
	c0.964-1.516,8.814-6.615,14.46-12.128c0.903-0.882,1.845-1.619,2.79-2.235c0,0-1.275,0.395-3.731,2.556
	c-2.456,2.161-7.961,6.144-10.755,7.924c-2.795,1.78-3.938,2.543-4.446,4.831s-0.114,5.545-0.127,6.738
	c-0.013,1.193,0.365,0.885,0.81,0.243C306.064,35.457,306.634,34.931,306.634,34.931z"/>
<path fill="#899341" d="M304.11,6.252c0.088,1.943,0.188,3.734,0.299,5.174c0,0,2.278-3.318,5.429-7.509
	c0,0-1.616,2.272-3.141,4.857c-1.689,2.865-2.075,4.492-2.329,6.229c-0.254,1.737-0.615,1.187-0.615,0.509
	c0-0.678-0.02-1.314-0.147-2.289c-0.127-0.975-0.466-1.695-0.932-2.585c-0.466-0.89-1.571-2.383-1.571-2.383
	s-0.218-2.014-0.197-4.972c0,0,0.02,1.514,0.957,2.608C302.868,7.065,304.11,6.252,304.11,6.252z"/>
<path fill="#899341" d="M318.178,0c-1.697,2.128-3.655,4.654-5.468,7.164c-4.531,6.272-7.961,10.594-8.511,12.797
	c-0.55,2.204-0.296,4.449-0.254,5.466c0.042,1.017,0.377,1.166,0.847,0.297c0.842-1.557,2.813-3.322,2.813-3.322
	c-2.127,1.599-3.058,2.53-3.058,2.53s-0.275-1.516,0.138-3.308c0.413-1.792,2.754-5.788,9.64-15.987
	c1.268-1.878,2.639-3.78,4.04-5.637L318.178,0z"/>
<path fill="#899341" d="M291.602,0c1.345,2.416,2.376,4.579,3.578,6.443c1.694,2.627,4.785,8.899,5.293,10.424
	c0.508,1.526,0.593,2.034,0.55,2.458c-0.042,0.424-0.085,0.17-0.974-0.509s-3.984-2.638-3.984-2.638
	c3.283,1.648,4.487,2.552,4.487,2.552s-3.168-7.304-6.473-12.817c-1.272-2.121-2.095-4.079-2.964-5.913L291.602,0z"/>
<path fill="#899341" d="M299.176,26.619v-4.581c0,0-11.431-5.375-20.52-9.647c0,0,8.733,3.672,11.4,4.689s7.961,3.644,8.977,3.687
	c1.016,0.042,1.016,0,1.694-0.17c0.677-0.17,0.508,0.424-0.212,1.822C299.656,24.087,299.176,26.619,299.176,26.619z"/>
<path fill="#899341" d="M334.875,35.249c-3.695,4.541-5.946,6.937-7.218,9.125c-1.355,2.331-1.567,4.026-2.583,4.026
	c-1.016,0-1.736-0.593-2.498-2.076c-0.762-1.483-3.344-7.138-3.344-7.138c2.1,6.033,3.979,10.316,3.979,10.316h3.811
	c0,0,0.254-3.814,1.778-5.975c0.566-0.803,3.06-3.902,6.075-7.625V35.249z"/>
<path fill="#899341" d="M329.575,37.778c-1.092,0.971-1.791,1.554-1.791,1.554s0-1.271,1.905-7.755c0,0-1.212,2.922-1.642,4.334
	s-0.861,3.374-1.004,4.14s-0.215,1.196-0.359,1.675c-0.143,0.479,0.048,0.574,0.55-0.144c0.502-0.718,0.454-1.46,1.1-2.297
	C328.98,38.448,329.575,37.778,329.575,37.778z"/>
<path fill="#899341" d="M328.944,26.148c-1.756,4.529-2.939,7.209-2.939,7.209s-0.293-0.573-0.875-1.568c0,0,0.358,1.06,0.549,1.778
	c0.191,0.718,0.287,1.173,0.311,1.675c0.024,0.503,0.359,0.431,0.502-0.239c0.143-0.67,0.263-1.699,0.956-4.307
	C328.143,28.086,328.944,26.148,328.944,26.148z"/>
<path fill="#899341" d="M319.327,27.757c2.175,2.989,3.858,5.511,4.265,6.87c1.143,3.814,0.635,6.483,0.635,6.483
	c-0.482-1.086-1-2.322-1.539-3.658c0,0,0.396,1.433,0.586,2.323c0.191,0.89,0.413,1.875,0.476,3.115
	c0.064,1.239,0.381,1.271,0.857,0.127c0.476-1.144,0.92-3.207,0.737-5.265c-0.191-2.154-2.166-5.033-3.468-6.876
	C320.575,29.034,319.327,27.757,319.327,27.757z"/>
<path fill="#4A7B96" d="M334.875,48.644c-5.118,0.334-11.248,0.558-17.836,0.558c-15.418,0-28.325-1.229-31.638-2.214v3.997h49.473
	L334.875,48.644z"/>
<polygon fill="#857363" points="132.264,125.328 155.252,150 282.666,150 260.098,125.626 "/>
<polygon fill="#F9F8F5" points="173.044,133.339 146.636,133.339 137.742,123.999 164.15,123.999 "/>
<polygon fill="#F2F1F0" points="137.742,127.178 137.742,123.999 146.636,133.339 146.636,136.518 "/>
<rect x="146.636" y="133.339" fill="#E8E8E8" width="26.408" height="3.178"/>
<polygon fill="#F2F1F0" points="183.434,144.666 157.026,144.666 148.132,135.326 174.54,135.326 "/>
<polygon fill="#E8E8E8" points="148.132,138.504 148.132,135.326 157.026,144.666 157.026,147.844 "/>
<rect x="157.026" y="144.666" fill="#E2E2E2" width="26.408" height="3.178"/>
<polygon fill="#D8D8D8" points="188.118,150 161.71,150 158.522,146.652 184.93,146.652 "/>
<polygon fill="#D3D3D3" points="158.522,149.83 158.522,146.652 161.71,150 158.683,150 "/>
<polygon fill="#A5A5A5" points="204.214,133.339 177.806,133.339 168.912,123.999 195.32,123.999 "/>
<polygon fill="#9B9B9B" points="168.912,127.178 168.912,123.999 177.806,133.339 177.806,136.518 "/>
<rect x="177.806" y="133.339" fill="#919191" width="26.408" height="3.178"/>
<polygon fill="#848484" points="214.604,144.666 188.196,144.666 179.302,135.326 205.71,135.326 "/>
<polygon fill="#7A7A7A" points="179.302,138.504 179.302,135.326 188.196,144.666 188.196,147.844 "/>
<rect x="188.196" y="144.666" fill="#727272" width="26.408" height="3.178"/>
<polygon fill="#666666" points="219.288,150 192.88,150 189.692,146.652 216.1,146.652 "/>
<polygon fill="#606060" points="189.692,149.83 189.692,146.652 192.88,150 189.853,150 "/>
<polygon fill="#C3D7D8" points="235.384,133.339 208.976,133.339 200.082,123.999 226.49,123.999 "/>
<polygon fill="#BCCECE" points="200.082,127.178 200.082,123.999 208.976,133.339 208.976,136.518 "/>
<rect x="208.976" y="133.339" fill="#B6C6C5" width="26.408" height="3.178"/>
<polygon fill="#B8D1D3" points="245.774,144.666 219.366,144.666 210.472,135.326 236.88,135.326 "/>
<polygon fill="#B1C8C9" points="210.472,138.504 210.472,135.326 219.366,144.666 219.366,147.844 "/>
<rect x="219.366" y="144.666" fill="#AAC0C1" width="26.408" height="3.178"/>
<polygon fill="#A6C7C9" points="250.458,150 224.05,150 220.862,146.652 247.27,146.652 "/>
<polygon fill="#A0C1C1" points="220.862,149.83 220.862,146.652 224.05,150 221.023,150 "/>
<polygon fill="#73A1A2" points="266.554,133.339 240.146,133.339 231.252,123.999 257.66,123.999 "/>
<polygon fill="#6E9999" points="231.252,127.178 231.252,123.999 240.146,133.339 240.146,136.518 "/>
<rect x="240.146" y="133.339" fill="#6C9392" width="26.408" height="3.178"/>
<polygon fill="#577A7D" points="276.944,144.666 250.536,144.666 241.642,135.326 268.05,135.326 "/>
<polygon fill="#547677" points="241.642,138.504 241.642,135.326 250.536,144.666 250.536,147.844 "/>
<rect x="250.536" y="144.666" fill="#517272" width="26.408" height="3.178"/>
<polygon fill="#366378" points="281.628,150 255.22,150 252.032,146.652 278.44,146.652 "/>
<polygon fill="#325C6D" points="252.032,149.83 252.032,146.652 255.22,150 252.193,150 "/>
<polygon fill="#7C6A5D" points="132.264,127.178 132.264,125.328 155.252,150 153.529,150 "/>
</svg>
